<svg width="2014" height="1268" xmlns="http://www.w3.org/2000/svg" xmlns:xlink="http://www.w3.org/1999/xlink" xml:space="preserve" overflow="hidden"><defs><clipPath id="clip0"><rect x="5544" y="1422" width="2014" height="1268"/></clipPath></defs><g clip-path="url(#clip0)" transform="translate(-5544 -1422)"><rect x="5545" y="1423" width="2011" height="1265" fill="#FFFFFF"/><g><path d="M5698.5 2443.58 7476.5 2443.58M5698.5 2329.58 7476.5 2329.58M5698.5 2215.57 7476.5 2215.57M5698.5 2101.57 7476.5 2101.57M5698.5 1987.57 7476.5 1987.57M5698.5 1872.56 7476.5 1872.56M5698.5 1758.56 7476.5 1758.56M5698.5 1644.5 7476.5 1644.5" stroke="#D9D9D9" stroke-width="3.4375" stroke-linejoin="round" stroke-miterlimit="10" fill="none"/></g><g><path d="M5698.5 2557.5 7476.5 2557.5" stroke="#D9D9D9" stroke-width="3.4375" stroke-linejoin="round" stroke-miterlimit="10" fill="none" fill-rule="evenodd"/></g><g><path d="M5698.5 2557.5 5698.5 2570.5M5744.69 2557.5 5744.69 2570.5M5791.69 2557.5 5791.69 2570.5M5838.69 2557.5 5838.69 2570.5M5885.69 2557.5 5885.69 2570.5M5931.69 2557.5 5931.69 2570.5M5978.7 2557.5 5978.7 2570.5M6025.7 2557.5 6025.7 2570.5M6072.7 2557.5 6072.7 2570.5M6119.7 2557.5 6119.7 2570.5M6165.7 2557.5 6165.7 2570.5M6212.7 2557.5 6212.7 2570.5M6259.71 2557.5 6259.71 2570.5M6306.71 2557.5 6306.71 2570.5M6353.71 2557.5 6353.71 2570.5M6399.71 2557.5 6399.71 2570.5M6446.71 2557.5 6446.71 2570.5M6493.71 2557.5 6493.71 2570.5M6540.71 2557.5 6540.71 2570.5M6586.72 2557.5 6586.72 2570.5M6633.72 2557.5 6633.72 2570.5M6680.72 2557.5 6680.72 2570.5M6727.72 2557.5 6727.72 2570.5M6774.72 2557.5 6774.72 2570.5M6820.72 2557.5 6820.72 2570.5M6867.73 2557.5 6867.73 2570.5M6914.73 2557.5 6914.73 2570.5M6961.73 2557.5 6961.73 2570.5M7008.73 2557.5 7008.73 2570.5M7054.73 2557.5 7054.73 2570.5M7101.73 2557.5 7101.73 2570.5M7148.73 2557.5 7148.73 2570.5M7195.74 2557.5 7195.74 2570.5M7241.74 2557.5 7241.74 2570.5M7288.74 2557.5 7288.74 2570.5M7335.74 2557.5 7335.74 2570.5M7382.74 2557.5 7382.74 2570.5M7429.74 2557.5 7429.74 2570.5M7476.5 2557.5 7476.5 2570.5" stroke="#D9D9D9" stroke-width="3.4375" stroke-linejoin="round" stroke-miterlimit="10" fill="none"/></g><g><path d="M5722 1698 5768.19 2051.07 5815.19 2119.07 5862.19 2092.07 5909.19 2172.07 5955.2 2203 6002.2 2150.07 6049.2 2154.07 6096.2 2120.07 6143.2 2109.07 6189.2 2181.07 6236.2 2158.07 6283.21 2156.07 6330.21 2142.07 6376.21 2145.07 6423.21 2123.07 6470.21 2104.07 6517.21 2107.07 6564.22 2095.07 6610.22 2077.07 6657.22 2122.07 6704.22 2108.07 6751.22 2110.07 6797.22 2112.07 6844.22 2105.07 6891.23 2101.07 6938.23 2102.07 6985.23 2115.07 7031.23 2105.07 7078.23 2095.07 7125.23 2099.07 7172.24 2106.07 7219.24 2104.07 7265.24 2102.07 7312.24 2086.07 7359.24 2092.07 7406.24 2099.07 7453 2082.07" stroke="#156082" stroke-width="10.3125" stroke-linecap="round" stroke-linejoin="round" stroke-miterlimit="10" fill="none"/></g><g><text fill="#595959" font-family="Aptos Narrow,Aptos Narrow_MSFontService,sans-serif" font-weight="400" font-stretch="semi-condensed" font-size="41" transform="matrix(1 0 0 1 5597.46 2569)">110</text></g><g><text fill="#595959" font-family="Aptos Narrow,Aptos Narrow_MSFontService,sans-serif" font-weight="400" font-stretch="semi-condensed" font-size="41" transform="matrix(1 0 0 1 5597.46 2455)">115</text></g><g><text fill="#595959" font-family="Aptos Narrow,Aptos Narrow_MSFontService,sans-serif" font-weight="400" font-stretch="semi-condensed" font-size="41" transform="matrix(1 0 0 1 5597.46 2341)">120</text></g><g><text fill="#595959" font-family="Aptos Narrow,Aptos Narrow_MSFontService,sans-serif" font-weight="400" font-stretch="semi-condensed" font-size="41" transform="matrix(1 0 0 1 5597.46 2227)">125</text></g><g><text fill="#595959" font-family="Aptos Narrow,Aptos Narrow_MSFontService,sans-serif" font-weight="400" font-stretch="semi-condensed" font-size="41" transform="matrix(1 0 0 1 5597.46 2113)">130</text></g><g><text fill="#595959" font-family="Aptos Narrow,Aptos Narrow_MSFontService,sans-serif" font-weight="400" font-stretch="semi-condensed" font-size="41" transform="matrix(1 0 0 1 5597.46 1999)">135</text></g><g><text fill="#595959" font-family="Aptos Narrow,Aptos Narrow_MSFontService,sans-serif" font-weight="400" font-stretch="semi-condensed" font-size="41" transform="matrix(1 0 0 1 5597.46 1885)">140</text></g><g><text fill="#595959" font-family="Aptos Narrow,Aptos Narrow_MSFontService,sans-serif" font-weight="400" font-stretch="semi-condensed" font-size="41" transform="matrix(1 0 0 1 5597.46 1771)">145</text></g><g><text fill="#595959" font-family="Aptos Narrow,Aptos Narrow_MSFontService,sans-serif" font-weight="400" font-stretch="semi-condensed" font-size="41" transform="matrix(1 0 0 1 5597.46 1656)">150</text></g><g><text fill="#595959" font-family="Aptos Narrow,Aptos Narrow_MSFontService,sans-serif" font-weight="400" font-stretch="semi-condensed" font-size="41" transform="matrix(1 0 0 1 5700.73 2622)">15</text></g><g><text fill="#595959" font-family="Aptos Narrow,Aptos Narrow_MSFontService,sans-serif" font-weight="400" font-stretch="semi-condensed" font-size="41" transform="matrix(1 0 0 1 5794.3 2622)">25</text></g><g><text fill="#595959" font-family="Aptos Narrow,Aptos Narrow_MSFontService,sans-serif" font-weight="400" font-stretch="semi-condensed" font-size="41" transform="matrix(1 0 0 1 5887.88 2622)">35</text></g><g><text fill="#595959" font-family="Aptos Narrow,Aptos Narrow_MSFontService,sans-serif" font-weight="400" font-stretch="semi-condensed" font-size="41" transform="matrix(1 0 0 1 5981.45 2622)">45</text></g><g><text fill="#595959" font-family="Aptos Narrow,Aptos Narrow_MSFontService,sans-serif" font-weight="400" font-stretch="semi-condensed" font-size="41" transform="matrix(1 0 0 1 6075.02 2622)">55</text></g><g><text fill="#595959" font-family="Aptos Narrow,Aptos Narrow_MSFontService,sans-serif" font-weight="400" font-stretch="semi-condensed" font-size="41" transform="matrix(1 0 0 1 6168.59 2622)">65</text></g><g><text fill="#595959" font-family="Aptos Narrow,Aptos Narrow_MSFontService,sans-serif" font-weight="400" font-stretch="semi-condensed" font-size="41" transform="matrix(1 0 0 1 6262.17 2622)">75</text></g><g><text fill="#595959" font-family="Aptos Narrow,Aptos Narrow_MSFontService,sans-serif" font-weight="400" font-stretch="semi-condensed" font-size="41" transform="matrix(1 0 0 1 6355.74 2622)">85</text></g><g><text fill="#595959" font-family="Aptos Narrow,Aptos Narrow_MSFontService,sans-serif" font-weight="400" font-stretch="semi-condensed" font-size="41" transform="matrix(1 0 0 1 6449.31 2622)">95</text></g><g><text fill="#595959" font-family="Aptos Narrow,Aptos Narrow_MSFontService,sans-serif" font-weight="400" font-stretch="semi-condensed" font-size="41" transform="matrix(1 0 0 1 6532.43 2622)">105</text></g><g><text fill="#595959" font-family="Aptos Narrow,Aptos Narrow_MSFontService,sans-serif" font-weight="400" font-stretch="semi-condensed" font-size="41" transform="matrix(1 0 0 1 6626 2622)">115</text></g><g><text fill="#595959" font-family="Aptos Narrow,Aptos Narrow_MSFontService,sans-serif" font-weight="400" font-stretch="semi-condensed" font-size="41" transform="matrix(1 0 0 1 6719.58 2622)">125</text></g><g><text fill="#595959" font-family="Aptos Narrow,Aptos Narrow_MSFontService,sans-serif" font-weight="400" font-stretch="semi-condensed" font-size="41" transform="matrix(1 0 0 1 6813.15 2622)">135</text></g><g><text fill="#595959" font-family="Aptos Narrow,Aptos Narrow_MSFontService,sans-serif" font-weight="400" font-stretch="semi-condensed" font-size="41" transform="matrix(1 0 0 1 6906.72 2622)">145</text></g><g><text fill="#595959" font-family="Aptos Narrow,Aptos Narrow_MSFontService,sans-serif" font-weight="400" font-stretch="semi-condensed" font-size="41" transform="matrix(1 0 0 1 7000.29 2622)">155</text></g><g><text fill="#595959" font-family="Aptos Narrow,Aptos Narrow_MSFontService,sans-serif" font-weight="400" font-stretch="semi-condensed" font-size="41" transform="matrix(1 0 0 1 7093.86 2622)">165</text></g><g><text fill="#595959" font-family="Aptos Narrow,Aptos Narrow_MSFontService,sans-serif" font-weight="400" font-stretch="semi-condensed" font-size="41" transform="matrix(1 0 0 1 7187.44 2622)">175</text></g><g><text fill="#595959" font-family="Aptos Narrow,Aptos Narrow_MSFontService,sans-serif" font-weight="400" font-stretch="semi-condensed" font-size="41" transform="matrix(1 0 0 1 7281.01 2622)">185</text></g><g><text fill="#595959" font-family="Aptos Narrow,Aptos Narrow_MSFontService,sans-serif" font-weight="400" font-stretch="semi-condensed" font-size="41" transform="matrix(1 0 0 1 7374.58 2622)">195</text></g><g><text fill="#595959" font-family="Aptos Narrow,Aptos Narrow_MSFontService,sans-serif" font-weight="400" font-stretch="semi-condensed" font-size="46" transform="matrix(6.12323e-17 -1 1 6.12323e-17 5594.55 2126)">dB</text></g><g><text fill="#595959" font-family="Aptos Narrow,Aptos Narrow_MSFontService,sans-serif" font-weight="400" font-stretch="semi-condensed" font-size="46" transform="matrix(1 0 0 1 6491.27 2668)">Frequency</text></g><g><text fill="#595959" font-family="Aptos Narrow,Aptos Narrow_MSFontService,sans-serif" font-weight="400" font-stretch="semi-condensed" font-size="64" transform="matrix(1 0 0 1 6146.67 1517)">dB when the flame extinguished  </text></g><rect x="5545.5" y="1423.5" width="2011" height="1265" stroke="#D9D9D9" stroke-width="3.4375" stroke-linejoin="round" stroke-miterlimit="10" fill="none"/></g></svg>